<?xml version="1.0" standalone="no"?>
<!DOCTYPE svg PUBLIC "-//W3C//DTD SVG 20010904//EN"
 "http://www.w3.org/TR/2001/REC-SVG-20010904/DTD/svg10.dtd">
<svg version="1.0" xmlns="http://www.w3.org/2000/svg"
 width="512.000000pt" height="512.000000pt" viewBox="0 0 512.000000 512.000000"
 preserveAspectRatio="xMidYMid meet">
<metadata>
Created by potrace 1.14, written by Peter Selinger 2001-2017
</metadata>
<g transform="translate(0.000000,512.000000) scale(0.100000,-0.100000)"
fill="#000000" stroke="none">
<path d="M2547 5024 c-1 -1 -31 -5 -67 -8 -125 -13 -250 -51 -456 -139 -143
-61 -175 -69 -231 -57 -21 5 -54 11 -73 14 -19 3 -73 12 -120 21 -195 35 -245
29 -292 -37 -23 -33 -24 -52 -30 -505 -3 -205 -5 -243 -18 -246 -8 -2 -53 -2
-100 -1 l-85 1 -2 32 c-2 18 -8 41 -13 51 -31 57 -157 67 -208 17 -25 -26 -26
-32 -30 -154 -2 -76 1 -139 7 -155 28 -73 159 -90 213 -29 16 17 28 40 28 51
0 19 7 20 100 20 l100 0 0 -42 c1 -57 -1 -341 -4 -508 l-1 -135 -95 0 c-55 -1
-98 4 -102 10 -4 5 -8 22 -8 36 0 82 -144 118 -217 54 -28 -23 -28 -25 -31
-163 l-3 -140 29 -34 c29 -31 34 -33 97 -33 63 0 68 2 96 33 16 18 29 41 29
52 0 19 7 20 100 20 88 0 100 -2 101 -17 0 -17 0 -102 -4 -493 l-2 -175 -101
-1 -101 -1 -1 31 c-2 68 -42 100 -127 100 -59 0 -101 -21 -114 -57 -5 -13 -10
-78 -10 -145 -2 -138 10 -173 62 -192 39 -13 100 -13 130 1 25 11 57 57 57 82
0 12 18 15 101 14 l101 0 -5 -391 c-2 -223 0 -402 5 -416 12 -33 47 -70 78
-82 14 -5 56 -12 94 -14 252 -16 470 -190 533 -425 15 -56 16 -111 14 -419
l-2 -355 545 0 c299 0 547 2 549 5 3 3 7 148 8 322 3 349 11 413 60 512 96
193 287 319 509 333 93 7 139 29 166 79 19 37 20 59 23 364 2 179 4 354 5 390
l1 65 98 0 c95 0 129 -6 114 -21 -3 -4 1 -20 11 -37 44 -76 186 -75 226 1 10
20 14 63 12 160 l-1 134 -30 27 c-23 20 -43 28 -78 29 -82 5 -137 -37 -137
-104 l0 -25 -107 3 -107 3 1 95 c0 52 2 206 4 341 l3 246 96 -2 c126 -3 120
-2 120 -28 0 -13 13 -36 29 -51 55 -52 173 -40 205 23 24 45 23 262 -1 302
-19 32 -58 49 -115 49 -68 0 -107 -31 -115 -90 l-6 -40 -103 0 c-76 0 -104 3
-105 13 -1 18 3 532 5 607 l1 65 85 2 c113 3 124 0 135 -39 27 -90 193 -101
232 -15 17 38 16 261 -1 295 -18 35 -54 52 -111 52 -78 0 -125 -39 -125 -104
l0 -25 -107 1 -108 1 2 56 c2 83 6 621 4 655 -1 37 -55 91 -104 104 -32 9 -57
6 -150 -18 -172 -44 -196 -45 -280 -11 -40 16 -102 42 -138 59 -140 65 -337
124 -453 138 -59 6 -184 12 -189 8z m-712 -888 c84 -40 126 -146 91 -229 -50
-121 -209 -156 -310 -68 -50 44 -70 139 -42 204 40 94 165 138 261 93z m1644
-21 c82 -42 123 -131 98 -210 -43 -134 -204 -178 -311 -84 -135 119 -35 331
148 312 22 -2 51 -10 65 -18z m-1622 -838 c105 -79 94 -233 -22 -299 -59 -33
-146 -31 -201 5 -114 76 -111 234 6 309 38 23 59 27 119 22 42 -3 65 -12 98
-37z m1633 -11 c83 -55 106 -154 56 -241 -58 -98 -199 -122 -286 -48 -80 67
-89 188 -20 262 62 65 175 77 250 27z m-1672 -807 c119 -58 135 -222 29 -303
-135 -103 -336 11 -305 173 23 123 158 187 276 130z m1661 -28 c69 -50 96
-117 76 -194 -31 -120 -171 -176 -280 -112 -91 53 -119 168 -63 253 57 86 185
111 267 53z"/>
</g>
</svg>
