<?xml version="1.0" standalone="no"?>
<!DOCTYPE svg PUBLIC "-//W3C//DTD SVG 20010904//EN"
 "http://www.w3.org/TR/2001/REC-SVG-20010904/DTD/svg10.dtd">
<svg version="1.0" xmlns="http://www.w3.org/2000/svg"
 width="512.000000pt" height="512.000000pt" viewBox="0 0 512.000000 512.000000"
 preserveAspectRatio="xMidYMid meet">
<metadata>
Created by potrace 1.14, written by Peter Selinger 2001-2017
</metadata>
<g transform="translate(0.000000,512.000000) scale(0.100000,-0.100000)"
fill="#000000" stroke="none">
<path d="M0 2560 l0 -2560 2560 0 2560 0 0 2560 0 2560 -2560 0 -2560 0 0
-2560z m2751 2085 c110 -19 213 -53 383 -127 156 -68 150 -67 323 -23 108 28
147 22 188 -26 l26 -31 -3 -309 -3 -309 30 -6 c17 -3 57 -4 90 -2 58 3 60 4
63 33 6 53 37 75 104 75 49 0 63 -4 83 -25 24 -23 25 -30 25 -140 0 -115 0
-117 -29 -146 -55 -54 -168 -33 -185 36 -6 24 -9 25 -96 25 l-90 0 0 -290 0
-290 90 0 90 0 0 28 c1 51 43 82 110 82 33 0 48 -6 71 -29 29 -29 29 -31 29
-144 0 -100 -3 -118 -20 -140 -26 -33 -79 -44 -132 -28 -33 10 -43 19 -56 52
l-15 39 -89 0 -88 0 0 -295 0 -295 90 0 90 0 0 30 c0 19 9 40 25 55 20 21 34
25 80 25 46 0 60 -4 80 -25 24 -23 25 -31 25 -135 0 -115 -12 -161 -45 -174
-9 -3 -39 -6 -66 -6 -40 0 -55 5 -74 25 -14 13 -25 33 -25 45 0 19 -6 20 -89
20 -72 0 -90 -3 -95 -16 -3 -9 -6 -155 -6 -325 0 -344 -3 -363 -62 -399 -22
-13 -51 -20 -83 -20 -214 0 -426 -165 -481 -374 -8 -28 -14 -99 -14 -157 0
-58 -3 -188 -7 -287 l-6 -182 -464 0 -463 0 0 303 c0 167 -5 322 -11 346 -27
117 -134 254 -245 313 -61 33 -153 58 -211 58 -56 0 -104 20 -132 56 l-23 29
4 342 3 343 -87 0 c-82 0 -88 -1 -88 -20 0 -12 -11 -32 -25 -45 -19 -20 -34
-25 -75 -25 -44 0 -56 5 -81 29 -28 29 -29 32 -29 136 0 125 12 158 64 175 72
23 140 -10 152 -75 l6 -35 84 0 84 0 0 295 0 295 -85 0 c-79 0 -85 -1 -85 -20
0 -12 -11 -32 -25 -45 -20 -21 -34 -25 -80 -25 -46 0 -60 4 -80 25 -24 23 -25
30 -25 140 0 115 0 117 29 146 25 24 38 29 78 29 61 0 89 -19 104 -70 l12 -40
84 0 83 0 0 290 0 290 -85 0 c-77 0 -85 -2 -85 -19 0 -33 -56 -71 -105 -71
-32 0 -51 7 -74 26 l-31 26 0 118 c0 111 2 121 24 147 21 24 31 28 79 28 66 0
104 -28 109 -79 l3 -31 85 0 85 0 5 305 c6 342 7 347 78 377 34 14 49 13 226
-18 181 -31 190 -32 230 -16 22 9 102 41 176 71 219 90 387 113 571 81z"/>
<path d="M1805 3906 c-16 -7 -43 -28 -59 -45 -24 -25 -30 -42 -34 -88 -3 -48
0 -64 20 -93 60 -90 208 -94 270 -7 33 46 36 123 6 166 -12 19 -35 43 -50 54
-34 25 -113 32 -153 13z"/>
<path d="M3191 3883 c-18 -9 -44 -34 -58 -55 -22 -32 -25 -46 -21 -94 4 -51 9
-61 45 -95 44 -41 91 -55 148 -45 42 8 98 54 115 96 17 40 8 111 -18 148 -42
59 -140 80 -211 45z"/>
<path d="M1807 3196 c-170 -62 -127 -300 53 -300 90 0 160 67 160 154 0 107
-111 183 -213 146z"/>
<path d="M3200 3179 c-120 -48 -135 -210 -25 -274 143 -84 304 61 226 205 -33
63 -132 96 -201 69z"/>
<path d="M1772 2473 c-45 -22 -74 -67 -80 -123 -5 -56 14 -98 61 -134 105 -80
257 -9 257 120 0 92 -63 154 -155 154 -27 0 -65 -8 -83 -17z"/>
<path d="M3180 2458 c-63 -33 -85 -67 -85 -136 0 -96 60 -152 162 -152 92 0
153 63 153 157 0 47 -4 58 -36 93 -56 62 -121 75 -194 38z"/>
</g>
</svg>
