<?xml version="1.0" standalone="no"?>
<!DOCTYPE svg PUBLIC "-//W3C//DTD SVG 20010904//EN"
 "http://www.w3.org/TR/2001/REC-SVG-20010904/DTD/svg10.dtd">
<svg version="1.0" xmlns="http://www.w3.org/2000/svg"
 width="512.000000pt" height="512.000000pt" viewBox="0 0 512.000000 512.000000"
 preserveAspectRatio="xMidYMid meet">
<metadata>
Created by potrace 1.14, written by Peter Selinger 2001-2017
</metadata>
<g transform="translate(0.000000,512.000000) scale(0.100000,-0.100000)"
fill="#000000" stroke="none">
<path d="M875 5114 c-11 -3 -57 -12 -103 -21 -46 -9 -85 -20 -88 -25 -3 -4
-12 -8 -20 -8 -23 0 -142 -58 -215 -105 -219 -141 -391 -401 -437 -659 -4 -22
-7 -808 -7 -1746 l0 -1705 22 -82 c92 -344 332 -603 659 -712 59 -20 75 -23
179 -41 28 -5 793 -9 1700 -9 1760 0 1698 -2 1858 48 36 11 100 37 143 59 260
131 443 359 522 650 l26 97 0 1680 c1 924 -2 1700 -6 1725 -56 372 -314 686
-663 805 -165 56 -103 54 -1895 53 -910 0 -1664 -2 -1675 -4z m1895 -966 c14
-3 45 -8 70 -13 313 -53 613 -210 845 -442 95 -94 205 -234 251 -318 6 -11 24
-45 41 -75 81 -146 148 -361 171 -550 14 -110 5 -441 -13 -469 -2 -4 -6 -27
-10 -51 -10 -68 -80 -271 -127 -368 -194 -400 -563 -713 -984 -836 -49 -14
-100 -27 -114 -30 -14 -2 -36 -7 -50 -10 -14 -3 -41 -9 -60 -12 -19 -4 -439
-9 -932 -11 l-898 -4 0 248 0 248 823 0 c848 0 932 2 1062 36 313 80 587 310
727 609 31 66 76 206 83 258 2 20 7 48 10 62 7 32 7 246 0 285 -28 154 -51
227 -108 344 -125 257 -357 459 -641 557 -159 55 -192 57 -843 58 l-603 1 -1
-65 c-5 -696 -2 -1440 6 -1443 6 -2 266 -3 580 -2 511 1 576 3 629 19 102 30
175 85 232 173 121 186 57 442 -137 556 -81 48 -144 57 -384 58 l-220 2 -3
-310 -2 -310 -253 1 -252 1 0 560 0 560 485 2 c267 1 505 -2 530 -7 25 -4 59
-10 75 -13 53 -8 158 -48 225 -84 337 -182 523 -539 478 -918 -24 -197 -117
-383 -264 -530 -130 -128 -282 -209 -474 -251 -19 -4 -423 -9 -897 -11 l-863
-4 0 1256 0 1256 893 -4 c490 -2 903 -6 917 -9z"/>
</g>
</svg>
